<svg id="Capa_1" enable-background="new 0 0 512.867 512.867" height="512" viewBox="0 0 512.867 512.867" width="512" xmlns="http://www.w3.org/2000/svg"><g id="XMLID_874_"><path id="XMLID_896_" d="m512.442 283.02c-4.585-49.53-46.368-88.442-97.075-88.442h-48.43c-10.832 0-21.633-2.649-31.235-7.662l-100.902-52.672-7.146 12.601c-8.944 15.77-21.304 30.488-36.041 43.023l-148.398-88.08-43.215 72.809 105.916 62.865c-5.084.697-11.094 1.116-18.584 1.116h-86.465v172.5h186.876l9.538-13.83 159.655 13.32.442.03c50.8 2.726 101.695-7.854 147.196-30.604l8.292-4.146v-93.041zm-419.749-88.293 12.607-21.201 91.338 54.212c2.833 1.682 4.842 4.366 5.656 7.558s.337 6.51-1.345 9.343c-1.681 2.833-4.365 4.841-7.557 5.655-3.192.815-6.51.337-9.343-1.345zm-38.993-51.828 25.802 15.315-12.607 21.201-25.785-15.305zm-22.833 125.679h56.465c26.405 0 39.825-4.794 50.608-8.646 1.243-.444 2.457-.873 3.663-1.288l27.133 16.104c6.626 3.933 14.024 5.947 21.534 5.947 3.51 0 7.046-.44 10.536-1.331 10.957-2.794 20.169-9.689 25.94-19.413 10.591-17.843 6.513-40.38-8.621-53.537 10.614-9.919 20.036-20.851 27.94-32.448l75.753 39.544c13.871 7.24 29.472 11.067 45.118 11.067h48.43c37.22 0 67.5 30.28 67.5 67.5v5.545c-38.633 17.654-81.182 25.776-123.663 23.531l-138.656-11.568c-19.945-1.664-40.205-2.507-60.216-2.507h-129.464zm452 88.549c-38.634 17.653-81.183 25.771-123.663 23.526l-176.751-14.746-10.462 15.17h-141.124v-44h129.464c19.183 0 38.604.809 57.722 2.404l138.883 11.586.442.03c42.86 2.3 85.79-4.872 125.488-20.833v26.863z"/><path id="XMLID_903_" d="m298.367 240.162h30v29.083h-30z"/><path id="XMLID_904_" d="m394.367 260.245h30v29.083h-30z"/></g></svg>