<svg id="Capa_1" enable-background="new 0 0 512.009 512.009" height="512" viewBox="0 0 512.009 512.009" width="512" xmlns="http://www.w3.org/2000/svg"><path d="m30.009 376.458v104.546h45l6.021-72.202c10.585-127.072 33.296-157.33 37.295-172.852 9.24 11.918 72.093 66.193 86.752 119.326 20.449 74.033 90.648 125.728 169.281 125.728h106.699c17.065 0 30.952-13.887 30.952-30.952 0-8.936-3.853-17.417-10.576-23.291l-109.424-95.757c-12.231 18.34-33.637 29.312-58.349 29.312-.059 0-.132 0-.19 0-23.174-.923-43.726-13.579-54.99-33.867-24.562-39.553-100.993-177.966-218.471-295.445-39.587 39.587-60.502 95.043-60 134.782.172 13.63 2.858 27.389 7.295 40.662 15.058 45.25 22.705 122.359 22.705 170.01z"/></svg>