<svg id="Capa_1" enable-background="new 0 0 507.804 507.804" height="512" viewBox="0 0 507.804 507.804" width="512" xmlns="http://www.w3.org/2000/svg"><path d="m498.427 296.666c.051-.352.077-86.769.077-86.769 0-6.286-2.448-12.195-6.892-16.639l-32.474-32.473c-3.47-3.471-8.085-5.383-12.994-5.383h-13.769c-7.349 0-13.975 4.362-16.881 11.115l-10.694 24.865c-2.485 5.777-8.154 9.51-14.442 9.51h-9.913c-8.668 0-15.721-7.053-15.721-15.722v-12.348c0-7.039-2.858-13.927-7.842-18.899l-15.154-15.116c-7.167-7.151-18.336-8.679-27.162-3.715l-3.944 2.218-3.406-3.557c-2.862-2.991-7.61-3.095-10.604-.23-2.992 2.864-3.096 7.612-.23 10.604l.742.775-14.661 8.246-3.547-3.705c-2.862-2.992-7.61-3.096-10.604-.231-2.992 2.865-3.096 7.612-.23 10.604l.884.923-14.863 8.36-3.525-3.681c-2.866-2.992-7.612-3.094-10.604-.23-2.992 2.865-3.095 7.612-.23 10.604l.861.9-14.623 8.225-2.478-2.588c-2.866-2.992-7.612-3.094-10.604-.23-2.927 2.803-3.081 7.404-.404 10.404l-129.033 72.579-53.46 6.585c-17.105 2.108-30.003 16.693-30.003 33.927v9.139c0 7.599 4.508 14.455 11.485 17.466l100.915 43.55c.938.405 1.95.614 2.972.614h359.946c17.913 0 32.486-14.573 32.486-32.486v-19.907c0-10.021-3.297-19.535-9.377-27.304zm-117.981-80.773h9.913c12.288 0 23.366-7.294 28.222-18.583l10.694-24.864c.534-1.242 1.751-2.043 3.102-2.043h13.769c.901 0 1.749.351 2.387.989l32.475 32.474c1.611 1.611 2.498 3.753 2.498 6.032v14.908h-8.509c-4.143 0-7.5 3.358-7.5 7.5s3.357 7.5 7.5 7.5h8.509v44.592c-8.044-4.073-17.267-5.684-26.351-4.395l-13.566 1.926v-11.079c0-1.989-.79-3.897-2.197-5.304l-9.788-9.787c-.805-.805-1.248-1.875-1.248-3.013v-8.681c0-2.349 1.911-4.26 4.261-4.26h8.418c4.143 0 7.5-3.358 7.5-7.5s-3.357-7.5-7.5-7.5h-8.418c-10.62 0-19.261 8.64-19.261 19.26v8.681c0 5.144 2.003 9.98 5.642 13.62l7.592 7.591v10.1l-73.938 10.496-12.909-23.385c-2.004-3.626-6.564-4.943-10.191-2.941-3.626 2.002-4.942 6.564-2.941 10.19l10.153 18.391-26.629 3.78-35.135-63.649 22.13-11.93 14.032 25.42c1.368 2.478 3.931 3.877 6.573 3.877 1.226 0 2.469-.301 3.618-.936 3.626-2.001 4.942-6.564 2.941-10.19l-13.96-25.289 39.588-21.34c4.53 11.321 15.604 19.342 28.524 19.342zm-111.111 90.77-27.296-50.881 21.752-11.725 32.451 58.786zm54.612 7.398 21.245-3.016v20.895h-18.925c-1.279 0-2.32-1.041-2.32-2.32zm36.245-5.145 17.463-2.479v25.504h-17.463zm32.463-4.608 17.462-2.479v30.112h-17.462zm32.462-4.608 23.805-3.379v33.301c0 1.279-1.04 2.32-2.319 2.32h-21.485v-32.242zm-172.846-110.822c1.474 1.539 3.444 2.313 5.418 2.313 1.864 0 3.732-.691 5.186-2.083 2.393-2.291 2.933-5.786 1.589-8.624l15.212-8.557.933.974c1.473 1.539 3.443 2.313 5.418 2.313 1.864 0 3.732-.691 5.186-2.083 2.385-2.284 2.928-5.762 1.602-8.595l15.02-8.448 1.075 1.123c1.473 1.539 3.443 2.313 5.418 2.313 1.864 0 3.732-.691 5.186-2.083 2.436-2.332 2.957-5.912 1.52-8.777l.886-.498c2.995-1.684 6.784-1.166 9.215 1.261l15.154 15.116c2.184 2.178 3.436 5.196 3.436 8.28v7.87l-115.946 62.5-30.494-28.299 19.908-11.198 2.002 2.091c1.474 1.539 3.444 2.313 5.418 2.313 1.865 0 3.732-.691 5.186-2.083 2.761-2.644 3.056-6.89.833-9.881l14.682-8.258zm-220.434 97.678 54.929-6.767c.97-.12 1.908-.428 2.76-.907l63.168-35.53 6.868 6.373c1.444 1.34 3.274 2.002 5.1 2.002 2.014 0 4.022-.806 5.5-2.398 2.817-3.036 2.64-7.782-.396-10.599l-3.341-3.101 23.133-13.011 34.35 31.878c.556.515 1.019 1.115 1.376 1.782l28.235 52.631-29.195 4.144-23.694-44.167c-1.074-2.001-2.462-3.799-4.125-5.342l-2.22-2.061c-3.036-2.818-7.782-2.641-10.599.395-2.818 3.036-2.641 7.782.395 10.599l2.221 2.062c.448.416.821.899 1.11 1.438l21.095 39.322-91.601 13.003-101.713-25.428c1.208-8.448 7.96-15.249 16.644-16.318zm460.967 57.32c0 9.642-7.845 17.486-17.486 17.486h-358.397l-96.915-41.824 94.682 23.67c.939.235 1.915.284 2.873.15l191.385-27.168v13.43c0 9.55 7.77 17.32 17.32 17.32h120.335c9.55 0 17.319-7.77 17.319-17.32v-35.042c7.539.148 14.874 3.2 20.269 8.594 5.555 5.555 8.614 12.94 8.614 20.795v19.909z"/></svg>