<?xml version="1.0" encoding="iso-8859-1"?>
<!-- Generator: Adobe Illustrator 19.0.0, SVG Export Plug-In . SVG Version: 6.00 Build 0)  -->
<svg version="1.1" id="Capa_1" xmlns="http://www.w3.org/2000/svg" xmlns:xlink="http://www.w3.org/1999/xlink" x="0px" y="0px"
	 viewBox="0 0 512 512" style="enable-background:new 0 0 512 512;" xml:space="preserve">
<g>
	<g>
		<path d="M434.1,243.904h-5.955c-22.249,0-43.92-7.838-61.022-22.072l-117.812-98.055c-8.896-7.404-20.169-11.481-31.743-11.481
			c-27.361,0-49.621,22.26-49.621,49.621v11.586c0,22.572-18.364,40.937-40.937,40.937c-15.844,0-30.407-9.279-37.102-23.639
			l-3.261-6.995c-7.434-15.944-23.604-26.246-41.195-26.246C20.39,157.56,0,177.949,0,203.012v118.792
			c0,42.954,34.946,77.9,77.9,77.9h356.2c42.954,0,77.9-34.946,77.9-77.9C512,278.85,477.054,243.904,434.1,243.904z M434.1,369.704
			H77.9c-17.829,0-33.403-9.799-41.65-24.287h439.5C467.503,359.905,451.929,369.704,434.1,369.704z M30,315.419V203.012
			c0-8.521,6.932-15.452,15.452-15.452c5.98,0,11.478,3.503,14.005,8.923l3.261,6.994c11.601,24.884,36.837,40.963,64.293,40.963
			c39.115,0,70.937-31.822,70.937-70.937v-11.586c0-10.819,8.802-19.621,19.621-19.621c4.576,0,9.034,1.612,12.552,4.54
			l28.901,24.055l-32.93,32.93l21.213,21.213l34.872-34.871l13.031,10.846l-31.444,31.444l21.213,21.213l33.386-33.385
			l13.031,10.846l-29.958,29.958l21.213,21.213l32.115-32.115c21.284,15.35,47.024,23.723,73.383,23.723h5.955
			c24.246,0,44.328,18.112,47.461,41.513H30z"/>
	</g>
</g>
<g>
</g>
<g>
</g>
<g>
</g>
<g>
</g>
<g>
</g>
<g>
</g>
<g>
</g>
<g>
</g>
<g>
</g>
<g>
</g>
<g>
</g>
<g>
</g>
<g>
</g>
<g>
</g>
<g>
</g>
</svg>
