<svg id="Capa_1" enable-background="new 0 0 511.974 511.974" height="512" viewBox="0 0 511.974 511.974" width="512" xmlns="http://www.w3.org/2000/svg"><g><path d="m502.974 345.984v-65.253c0-11.937-3.617-23.417-10.46-33.198l-2.296-3.282c-.617-.882-.943-1.917-.943-2.994v-79.506c0-11.373-9.252-20.625-20.625-20.625h-14.223c-4.142 0-7.5 3.358-7.5 7.5s3.358 7.5 7.5 7.5h14.223c3.102 0 5.625 2.523 5.625 5.625v79.506c0 4.169 1.263 8.178 3.653 11.593l2.296 3.282c5.071 7.248 7.751 15.754 7.751 24.6v60.82h-354.667l-33.847-7.37 30.361-39.463 9.859-2.676 4.889 11.212c1.23 2.821 3.986 4.504 6.879 4.504 1 0 2.018-.202 2.994-.627 3.797-1.656 5.533-6.076 3.877-9.873l-4.006-9.189 21.308-5.783 6.15 11.969c1.33 2.587 3.955 4.074 6.677 4.074 1.153 0 2.325-.267 3.421-.831 3.684-1.893 5.136-6.415 3.243-10.099l-4.691-9.13 23.699-6.432 6.478 9.568c1.45 2.142 3.812 3.296 6.217 3.296 1.447 0 2.91-.418 4.198-1.291 3.43-2.322 4.328-6.985 2.005-10.416l-3.596-5.311 21.442-5.819 5.162 8.488c1.412 2.322 3.883 3.604 6.416 3.604 1.328 0 2.672-.353 3.89-1.093 3.539-2.152 4.664-6.766 2.511-10.305l-2.909-4.784 20.633-5.6c.608-.165 1.203-.361 1.798-.558l4.336 6.617c1.44 2.197 3.836 3.39 6.28 3.39 1.41 0 2.836-.397 4.104-1.228 3.464-2.271 4.433-6.919 2.162-10.384l-4.037-6.16c.579-.561 1.141-1.143 1.682-1.747l14.796-16.514 7.026 11.046c1.429 2.247 3.855 3.476 6.335 3.476 1.376 0 2.77-.379 4.018-1.173 3.495-2.223 4.526-6.858 2.303-10.354l-9.286-14.599 14.495-16.179 5.055 7.482c1.449 2.146 3.814 3.303 6.222 3.303 1.444 0 2.905-.417 4.191-1.286 3.433-2.319 4.335-6.981 2.017-10.413l-7.164-10.605 13.67-15.257 1.918 2.82c1.451 2.134 3.809 3.283 6.208 3.283 1.452 0 2.92-.421 4.211-1.299 3.425-2.33 4.313-6.995 1.984-10.419l-4.009-5.894.346-.386c1.716-1.915 4.174-3.013 6.745-3.013h38.489c4.142 0 7.5-3.358 7.5-7.5s-3.358-7.5-7.5-7.5h-15.784c-.891-18.575-11.168-35.718-27.282-45.197l-2.19-1.289c-6.343-3.73-14.425-2.384-19.216 3.204l-98.213 114.572-136.132 68.227h-37.348c-4.142 0-7.5 3.358-7.5 7.5s3.358 7.5 7.5 7.5h23.888l-26.935 35.009-67.306-14.655c3.151-11.709 13.856-20.354 26.546-20.354h11.845c4.142 0 7.5-3.358 7.5-7.5s-3.358-7.5-7.5-7.5h-11.845c-23.429.002-42.491 19.063-42.491 42.493v40.432c0 12.021 8.106 22.603 19.714 25.732l108.467 29.238c2.206.595 4.484.897 6.771.897h354.678c12.32 0 22.344-10.023 22.344-22.344v-33.194c0-7.322-3.541-13.833-9-17.911zm-307.224-84.701 8.379-4.2 1.101 1.627zm24.784-6.726-2.879-4.252 20.065-10.056 5.034 8.278zm72.22-23.609-12.61-19.243 16.482-19.228 12.703 19.971zm26.97-30.104-12.894-20.271 13.481-15.727 13.612 20.15zm24.52-27.367-13.809-20.441 13.324-15.543 14.121 20.763zm25.134-65.871c.056-.065.151-.081.222-.038l2.19 1.289c11.553 6.796 18.998 18.99 19.871 32.269h-7.687c-5.771 0-11.323 2.09-15.657 5.804l-14.444-21.237zm-101.53 117.543c.8-.401 1.514-.947 2.123-1.601l9.787 14.935-21.936 5.953-6.647-10.931zm-252.848 138.417v-32.424l110.001 23.952v47.049l-101.383-27.328c-5.074-1.368-8.618-5.994-8.618-11.249zm474.63 40.867h-349.629v-16.441h287.919c4.142 0 7.5-3.358 7.5-7.5s-3.358-7.5-7.5-7.5h-287.919v-16.441h349.629c4.049 0 7.344 3.294 7.344 7.344v9.097h-37.091c-4.142 0-7.5 3.358-7.5 7.5s3.358 7.5 7.5 7.5h37.091v9.097c0 4.05-3.295 7.344-7.344 7.344z"/><path d="m390.822 246.633-1.132 3.483h-3.663c-5.958 0-11.199 3.807-13.04 9.474s.16 11.828 4.981 15.33l2.963 2.152-1.132 3.483c-1.841 5.667.16 11.827 4.981 15.33 2.41 1.751 5.234 2.627 8.06 2.627 2.824 0 5.649-.875 8.059-2.626l2.963-2.153 2.963 2.152c4.82 3.502 11.298 3.503 16.118 0 4.821-3.502 6.822-9.663 4.981-15.33l-1.132-3.483 2.963-2.153c4.821-3.502 6.822-9.663 4.981-15.33s-7.082-9.474-13.04-9.474h-3.663l-1.132-3.483c-1.841-5.667-7.082-9.475-13.04-9.475s-11.197 3.809-13.039 9.476zm26.276 18.483h.632l-.512.372c-4.82 3.502-6.822 9.663-4.98 15.33l.195.602-.512-.372c-2.41-1.751-5.234-2.627-8.059-2.627-2.824 0-5.649.875-8.059 2.626l-.512.372.195-.602c1.841-5.667-.16-11.828-4.981-15.33l-.512-.372h.632c5.959 0 11.2-3.808 13.04-9.474l.196-.603.195.601c1.842 5.67 7.083 9.477 13.042 9.477z"/><path d="m345.799 267.846c0 32.016 26.047 58.063 58.063 58.063s58.063-26.047 58.063-58.063-26.047-58.063-58.063-58.063-58.063 26.047-58.063 58.063zm101.126 0c0 23.745-19.318 43.063-43.063 43.063s-43.063-19.318-43.063-43.063 19.318-43.063 43.063-43.063 43.063 19.318 43.063 43.063z"/><path d="m318.388 306.982h-6.466c-4.142 0-7.5 3.358-7.5 7.5s3.358 7.5 7.5 7.5h6.466c4.142 0 7.5-3.358 7.5-7.5s-3.358-7.5-7.5-7.5z"/><path d="m270.781 306.982c-4.142 0-7.5 3.358-7.5 7.5s3.358 7.5 7.5 7.5h6.466c4.142 0 7.5-3.358 7.5-7.5s-3.358-7.5-7.5-7.5z"/></g></svg>